<?xml version="1.0" standalone="no"?>
<!DOCTYPE svg PUBLIC "-//W3C//DTD SVG 20010904//EN"
 "http://www.w3.org/TR/2001/REC-SVG-20010904/DTD/svg10.dtd">
<svg version="1.0" xmlns="http://www.w3.org/2000/svg"
 width="688.000000pt" height="688.000000pt" viewBox="0 0 688.000000 688.000000"
 preserveAspectRatio="xMidYMid meet">
<metadata>
Created by potrace 1.14, written by Peter Selinger 2001-2017
</metadata>
<g transform="translate(0.000000,688.000000) scale(0.100000,-0.100000)"
fill="#000000" stroke="none">
<path d="M3234 6751 c-104 -40 -144 -86 -235 -268 -40 -82 -77 -151 -82 -154
-5 -3 -8 -9 -7 -13 2 -10 -1023 -2060 -1032 -2064 -5 -2 -8 -8 -8 -14 0 -8
-135 -284 -170 -348 -8 -14 -15 -27 -15 -30 -3 -16 -320 -646 -327 -648 -4 -2
-8 -9 -8 -15 0 -15 -853 -1721 -862 -1725 -5 -2 -8 -7 -8 -12 0 -9 -79 -174
-120 -250 -13 -25 -25 -47 -25 -50 -3 -14 -101 -206 -108 -211 -5 -3 -9 -10
-9 -15 -1 -15 -21 -58 -42 -89 -12 -16 -20 -31 -19 -32 1 -2 -33 -74 -75 -160
-76 -155 -77 -159 -76 -233 1 -131 65 -232 184 -289 44 -21 68 -26 125 -25 39
1 88 8 110 16 34 12 630 399 645 419 3 3 10 8 15 10 21 8 760 503 763 511 2 4
8 8 13 8 6 0 200 126 399 261 8 5 116 77 240 159 124 82 232 154 240 160 8 6
56 37 105 70 50 33 95 63 101 68 5 5 21 15 34 22 13 7 33 21 44 31 11 11 24
19 28 19 9 0 62 36 85 57 7 6 22 15 33 18 11 3 20 10 20 14 0 5 14 14 30 21
17 7 30 16 30 20 0 4 15 15 33 24 17 9 39 22 48 28 13 9 73 -27 332 -201 174
-116 321 -211 326 -211 5 0 11 -3 13 -8 4 -10 216 -152 227 -152 5 0 11 -4 13
-8 4 -11 215 -152 227 -152 5 0 11 -4 13 -8 4 -11 215 -152 227 -152 5 0 11
-4 13 -8 2 -4 57 -44 123 -87 66 -44 125 -83 130 -88 6 -4 75 -50 155 -102 80
-52 150 -98 155 -102 6 -5 165 -112 355 -238 190 -126 348 -234 352 -240 5 -6
8 -6 8 0 0 7 3 7 8 0 10 -14 101 -75 111 -75 5 0 11 -3 13 -7 4 -10 88 -65 88
-58 0 3 9 1 20 -5 18 -9 90 -24 115 -22 77 3 173 47 226 104 62 65 83 120 83
220 l1 86 -895 1789 c-492 983 -898 1790 -902 1791 -5 2 -8 10 -8 17 0 16
-101 217 -113 226 -5 3 -8 9 -7 13 2 9 -583 1179 -593 1187 -5 3 -9 10 -9 15
0 8 -435 883 -470 947 -7 12 -12 24 -13 27 -1 17 -68 119 -92 140 -95 85 -221
112 -329 71z"/>
</g>
</svg>
