<svg xmlns="http://www.w3.org/2000/svg" xmlns:xlink="http://www.w3.org/1999/xlink" width="170" zoomAndPan="magnify" viewBox="0 0 127.5 127.499994" height="170" preserveAspectRatio="xMidYMid meet" version="1.0"><defs><clipPath id="55dc442db3"><path d="M 0 0 L 127 0 L 127 96 L 0 96 Z M 0 0 " clip-rule="nonzero"/></clipPath><clipPath id="2ed4cb592c"><path d="M 14 1 L 127 1 L 127 108 L 14 108 Z M 14 1 " clip-rule="nonzero"/></clipPath><clipPath id="53d920ae8d"><path d="M 6 0 L 127 0 L 127 116 L 6 116 Z M 6 0 " clip-rule="nonzero"/></clipPath><clipPath id="660d703385"><path d="M 29 1 L 127 1 L 127 126 L 29 126 Z M 29 1 " clip-rule="nonzero"/></clipPath><clipPath id="864e15f206"><path d="M 16 0 L 127 0 L 127 127 L 16 127 Z M 16 0 " clip-rule="nonzero"/></clipPath><clipPath id="45b40c184e"><path d="M 124 0 L 127 0 L 127 127 L 124 127 Z M 124 0 " clip-rule="nonzero"/></clipPath></defs><path fill="#ffffff" d="M 0 0 L 127 0 L 127 127 L 0 127 Z M 0 0 " fill-opacity="1" fill-rule="nonzero"/><path fill="#ffffff" d="M 0 0 L 127 0 L 127 127 L 0 127 Z M 0 0 " fill-opacity="1" fill-rule="nonzero"/><path fill="#2d68f8" d="M 4.621094 1.105469 L 119.320312 1.105469 C 119.8125 1.105469 120.28125 1.199219 120.734375 1.386719 C 121.1875 1.574219 121.589844 1.84375 121.9375 2.1875 C 122.285156 2.535156 122.550781 2.933594 122.738281 3.386719 C 122.925781 3.839844 123.019531 4.308594 123.019531 4.796875 L 123.019531 83.804688 C 123.019531 84.296875 122.925781 84.765625 122.738281 85.21875 C 122.550781 85.671875 122.285156 86.070312 121.9375 86.417969 C 121.589844 86.761719 121.1875 87.03125 120.734375 87.214844 C 120.28125 87.402344 119.8125 87.496094 119.320312 87.496094 L 4.621094 87.496094 C 4.128906 87.496094 3.65625 87.402344 3.203125 87.214844 C 2.75 87.03125 2.351562 86.761719 2.003906 86.417969 C 1.65625 86.070312 1.390625 85.671875 1.203125 85.21875 C 1.015625 84.765625 0.921875 84.296875 0.921875 83.804688 L 0.921875 4.796875 C 0.921875 4.308594 1.015625 3.839844 1.203125 3.386719 C 1.390625 2.933594 1.65625 2.535156 2.003906 2.1875 C 2.351562 1.84375 2.75 1.574219 3.203125 1.386719 C 3.65625 1.199219 4.128906 1.105469 4.621094 1.105469 Z M 4.621094 1.105469 " fill-opacity="1" fill-rule="nonzero"/><g clip-path="url(#55dc442db3)"><path stroke-linecap="butt" transform="matrix(0.739996, 0, 0, 0.738383, 0.920781, 1.106835)" fill="none" stroke-linejoin="miter" d="M 5.000454 -0.00184998 L 160.00034 -0.00184998 C 160.665462 -0.00184998 161.298912 0.125117 161.911247 0.37905 C 162.523582 0.632983 163.067293 0.998012 163.537101 1.463556 C 164.00691 1.93439 164.365865 2.473998 164.619245 3.08767 C 164.872625 3.701341 164.999314 4.336174 164.999314 4.997458 L 164.999314 111.998525 C 164.999314 112.6651 164.872625 113.299932 164.619245 113.913604 C 164.365865 114.527276 164.00691 115.066884 163.537101 115.537718 C 163.067293 116.003262 162.523582 116.368291 161.911247 116.616934 C 161.298912 116.870867 160.665462 116.997833 160.00034 116.997833 L 5.000454 116.997833 C 4.335331 116.997833 3.696603 116.870867 3.084268 116.616934 C 2.471933 116.368291 1.933501 116.003262 1.463692 115.537718 C 0.993884 115.066884 0.634929 114.527276 0.381549 113.913604 C 0.128169 113.299932 0.00147901 112.6651 0.00147901 111.998525 L 0.00147901 4.997458 C 0.00147901 4.336174 0.128169 3.701341 0.381549 3.08767 C 0.634929 2.473998 0.993884 1.93439 1.463692 1.463556 C 1.933501 0.998012 2.471933 0.632983 3.084268 0.37905 C 3.696603 0.125117 4.335331 -0.00184998 5.000454 -0.00184998 Z M 5.000454 -0.00184998 " stroke="#000000" stroke-width="2" stroke-opacity="1" stroke-miterlimit="4"/></g><g clip-path="url(#2ed4cb592c)"><path fill="#f5c629" d="M 20.902344 1.105469 L 131.160156 1.105469 C 131.546875 1.105469 131.933594 1.144531 132.316406 1.21875 C 132.695312 1.296875 133.066406 1.40625 133.425781 1.554688 C 133.785156 1.703125 134.125 1.886719 134.449219 2.101562 C 134.773438 2.316406 135.070312 2.5625 135.347656 2.835938 C 135.621094 3.109375 135.867188 3.410156 136.082031 3.730469 C 136.296875 4.054688 136.480469 4.394531 136.628906 4.753906 C 136.777344 5.113281 136.890625 5.480469 136.964844 5.863281 C 137.042969 6.242188 137.078125 6.625 137.078125 7.015625 L 137.078125 101.527344 C 137.078125 101.914062 137.042969 102.300781 136.964844 102.679688 C 136.890625 103.058594 136.777344 103.429688 136.628906 103.789062 C 136.480469 104.144531 136.296875 104.484375 136.082031 104.808594 C 135.867188 105.132812 135.621094 105.429688 135.347656 105.703125 C 135.070312 105.976562 134.773438 106.222656 134.449219 106.4375 C 134.125 106.652344 133.785156 106.835938 133.425781 106.984375 C 133.066406 107.132812 132.695312 107.246094 132.316406 107.320312 C 131.933594 107.394531 131.546875 107.433594 131.160156 107.433594 L 20.902344 107.433594 C 20.511719 107.433594 20.128906 107.394531 19.746094 107.320312 C 19.363281 107.246094 18.996094 107.132812 18.636719 106.984375 C 18.277344 106.835938 17.933594 106.652344 17.613281 106.4375 C 17.289062 106.222656 16.988281 105.976562 16.714844 105.703125 C 16.441406 105.429688 16.195312 105.132812 15.976562 104.808594 C 15.761719 104.484375 15.582031 104.144531 15.429688 103.789062 C 15.28125 103.429688 15.171875 103.058594 15.09375 102.679688 C 15.019531 102.300781 14.980469 101.914062 14.980469 101.527344 L 14.980469 7.015625 C 14.980469 6.625 15.019531 6.242188 15.09375 5.863281 C 15.171875 5.480469 15.28125 5.113281 15.429688 4.753906 C 15.582031 4.394531 15.761719 4.054688 15.976562 3.730469 C 16.195312 3.410156 16.441406 3.109375 16.714844 2.835938 C 16.988281 2.5625 17.289062 2.316406 17.613281 2.101562 C 17.933594 1.886719 18.277344 1.703125 18.636719 1.554688 C 18.996094 1.40625 19.363281 1.296875 19.746094 1.21875 C 20.128906 1.144531 20.511719 1.105469 20.902344 1.105469 Z M 20.902344 1.105469 " fill-opacity="1" fill-rule="nonzero"/></g><g clip-path="url(#53d920ae8d)"><path stroke-linecap="butt" transform="matrix(0.739996, 0, 0, 0.738383, 14.980696, 1.106835)" fill="none" stroke-linejoin="miter" d="M 8.002276 -0.00184998 L 157.000225 -0.00184998 C 157.522821 -0.00184998 158.045417 0.0510528 158.562735 0.151568 C 159.074773 0.257373 159.576254 0.405501 160.061899 0.606531 C 160.547544 0.807562 161.006795 1.056205 161.444931 1.34717 C 161.883067 1.638135 162.284252 1.971422 162.659043 2.341741 C 163.028556 2.71206 163.361117 3.119411 163.651448 3.553214 C 163.941779 3.992306 164.18988 4.45256 164.390473 4.939265 C 164.591065 5.42597 164.744149 5.923256 164.844445 6.441703 C 164.95002 6.954859 164.997529 7.473306 164.997529 8.002333 L 164.997529 136.000495 C 164.997529 136.524232 164.95002 137.047969 164.844445 137.561125 C 164.744149 138.074282 164.591065 138.576858 164.390473 139.063563 C 164.18988 139.544978 163.941779 140.005232 163.651448 140.444324 C 163.361117 140.883417 163.028556 141.285478 162.659043 141.655797 C 162.284252 142.026116 161.883067 142.359403 161.444931 142.650368 C 161.006795 142.941333 160.547544 143.189976 160.061899 143.391007 C 159.576254 143.592037 159.074773 143.745455 158.562735 143.84597 C 158.045417 143.946485 157.522821 143.999388 157.000225 143.999388 L 8.002276 143.999388 C 7.474401 143.999388 6.957084 143.946485 6.439766 143.84597 C 5.922449 143.745455 5.426247 143.592037 4.940602 143.391007 C 4.454957 143.189976 3.990427 142.941333 3.55757 142.650368 C 3.119434 142.359403 2.71297 142.026116 2.343458 141.655797 C 1.973945 141.285478 1.641384 140.883417 1.345774 140.444324 C 1.055443 140.005232 0.812621 139.544978 0.606749 139.063563 C 0.406157 138.576858 0.258352 138.074282 0.152777 137.561125 C 0.0524808 137.047969 -0.000306679 136.524232 -0.000306679 136.000495 L -0.000306679 8.002333 C -0.000306679 7.473306 0.0524808 6.954859 0.152777 6.441703 C 0.258352 5.923256 0.406157 5.42597 0.606749 4.939265 C 0.812621 4.45256 1.055443 3.992306 1.345774 3.553214 C 1.641384 3.119411 1.973945 2.71206 2.343458 2.341741 C 2.71297 1.971422 3.119434 1.638135 3.55757 1.34717 C 3.990427 1.056205 4.454957 0.807562 4.940602 0.606531 C 5.426247 0.405501 5.922449 0.257373 6.439766 0.151568 C 6.957084 0.0510528 7.474401 -0.00184998 8.002276 -0.00184998 Z M 8.002276 -0.00184998 " stroke="#000000" stroke-width="2" stroke-opacity="1" stroke-miterlimit="4"/></g><g clip-path="url(#660d703385)"><path fill="#ffffff" d="M 36.441406 1.105469 L 146.699219 1.105469 C 147.1875 1.105469 147.667969 1.152344 148.144531 1.25 C 148.621094 1.34375 149.082031 1.484375 149.53125 1.667969 C 149.980469 1.855469 150.40625 2.082031 150.8125 2.351562 C 151.214844 2.621094 151.589844 2.925781 151.933594 3.269531 C 152.277344 3.613281 152.582031 3.984375 152.851562 4.386719 C 153.121094 4.792969 153.351562 5.21875 153.535156 5.664062 C 153.722656 6.113281 153.863281 6.574219 153.957031 7.050781 C 154.050781 7.527344 154.101562 8.003906 154.101562 8.492188 L 154.101562 118.511719 C 154.101562 118.996094 154.050781 119.476562 153.957031 119.949219 C 153.863281 120.425781 153.722656 120.886719 153.535156 121.335938 C 153.351562 121.785156 153.121094 122.207031 152.851562 122.613281 C 152.582031 123.015625 152.277344 123.386719 151.933594 123.730469 C 151.589844 124.074219 151.214844 124.378906 150.8125 124.648438 C 150.40625 124.917969 149.980469 125.144531 149.53125 125.332031 C 149.082031 125.515625 148.621094 125.65625 148.144531 125.75 C 147.667969 125.847656 147.1875 125.894531 146.699219 125.894531 L 36.441406 125.894531 C 35.953125 125.894531 35.472656 125.847656 34.996094 125.75 C 34.519531 125.65625 34.058594 125.515625 33.609375 125.332031 C 33.160156 125.144531 32.734375 124.917969 32.328125 124.648438 C 31.925781 124.378906 31.550781 124.074219 31.207031 123.730469 C 30.863281 123.386719 30.558594 123.015625 30.289062 122.613281 C 30.019531 122.207031 29.789062 121.785156 29.605469 121.335938 C 29.417969 120.886719 29.277344 120.425781 29.183594 119.949219 C 29.089844 119.476562 29.039062 118.996094 29.039062 118.511719 L 29.039062 8.492188 C 29.039062 8.003906 29.089844 7.527344 29.183594 7.050781 C 29.277344 6.574219 29.417969 6.113281 29.605469 5.664062 C 29.789062 5.21875 30.019531 4.792969 30.289062 4.386719 C 30.558594 3.984375 30.863281 3.613281 31.207031 3.269531 C 31.550781 2.925781 31.925781 2.621094 32.328125 2.351562 C 32.734375 2.082031 33.160156 1.855469 33.609375 1.667969 C 34.058594 1.484375 34.519531 1.34375 34.996094 1.25 C 35.472656 1.152344 35.953125 1.105469 36.441406 1.105469 Z M 36.441406 1.105469 " fill-opacity="1" fill-rule="nonzero"/></g><g clip-path="url(#864e15f206)"><path stroke-linecap="butt" transform="matrix(0.739996, 0, 0, 0.738383, 29.04061, 1.106835)" fill="none" stroke-linejoin="miter" d="M 10.001137 -0.00184998 L 158.999087 -0.00184998 C 159.65893 -0.00184998 160.308216 0.0616333 160.952224 0.19389 C 161.596231 0.320857 162.219123 0.511307 162.826179 0.759949 C 163.433235 1.013882 164.008619 1.320718 164.557609 1.685747 C 165.10132 2.050776 165.60808 2.463417 166.072609 2.928961 C 166.537139 3.394505 166.948882 3.897081 167.313115 4.44198 C 167.677349 4.992168 167.988795 5.568808 168.236896 6.171899 C 168.490276 6.78028 168.680311 7.404533 168.807001 8.049946 C 168.933691 8.695359 169.002315 9.340773 169.002315 10.002057 L 169.002315 159.002603 C 169.002315 159.658597 168.933691 160.3093 168.807001 160.949424 C 168.680311 161.594837 168.490276 162.219089 168.236896 162.827471 C 167.988795 163.435852 167.677349 164.007201 167.313115 164.55739 C 166.948882 165.102288 166.537139 165.604864 166.072609 166.070408 C 165.60808 166.535952 165.10132 166.948593 164.557609 167.313622 C 164.008619 167.678651 163.433235 167.985487 162.826179 168.23942 C 162.219123 168.488063 161.596231 168.678513 160.952224 168.805479 C 160.308216 168.937736 159.65893 169.001219 158.999087 169.001219 L 10.001137 169.001219 C 9.341294 169.001219 8.692008 168.937736 8.048 168.805479 C 7.403993 168.678513 6.781101 168.488063 6.174045 168.23942 C 5.566989 167.985487 4.991605 167.678651 4.442615 167.313622 C 3.898904 166.948593 3.392144 166.535952 2.927615 166.070408 C 2.463085 165.604864 2.051342 165.102288 1.687109 164.55739 C 1.322875 164.007201 1.011429 163.435852 0.763328 162.827471 C 0.509948 162.219089 0.319913 161.594837 0.193223 160.949424 C 0.066533 160.3093 -0.00209069 159.658597 -0.00209069 159.002603 L -0.00209069 10.002057 C -0.00209069 9.340773 0.066533 8.695359 0.193223 8.049946 C 0.319913 7.404533 0.509948 6.78028 0.763328 6.171899 C 1.011429 5.568808 1.322875 4.992168 1.687109 4.44198 C 2.051342 3.897081 2.463085 3.394505 2.927615 2.928961 C 3.392144 2.463417 3.898904 2.050776 4.442615 1.685747 C 4.991605 1.320718 5.566989 1.013882 6.174045 0.759949 C 6.781101 0.511307 7.403993 0.320857 8.048 0.19389 C 8.692008 0.0616333 9.341294 -0.00184998 10.001137 -0.00184998 Z M 10.001137 -0.00184998 " stroke="#000000" stroke-width="3" stroke-opacity="1" stroke-miterlimit="4"/></g><path fill="#000000" d="M 64.503906 1.574219 L 49.734375 51.867188 L 75.332031 51.867188 L 57.40625 105.859375 L 114.59375 28.242188 L 85.25 28.242188 L 105.234375 1.574219 Z M 64.503906 1.574219 " fill-opacity="1" fill-rule="nonzero"/><g clip-path="url(#45b40c184e)"><path stroke-linecap="butt" transform="matrix(0, 0.74707, -0.74707, 0, 127.001945, -0.00000199219)" fill="none" stroke-linejoin="miter" d="M 0.00000266667 1.999989 L 169.997403 1.999989 " stroke="#000000" stroke-width="4" stroke-opacity="1" stroke-miterlimit="4"/></g></svg>