<svg xmlns="http://www.w3.org/2000/svg" xmlns:xlink="http://www.w3.org/1999/xlink" width="170" zoomAndPan="magnify" viewBox="0 0 127.5 127.499994" height="170" preserveAspectRatio="xMidYMid meet" version="1.0"><defs><clipPath id="6805282085"><path d="M 0 1.824219 L 127 1.824219 L 127 125.089844 L 0 125.089844 Z M 0 1.824219 " clip-rule="nonzero"/></clipPath></defs><g clip-path="url(#6805282085)"><path fill="#ffffff" d="M 7.386719 1.824219 L 119.613281 1.824219 C 120.09375 1.824219 120.566406 1.871094 121.039062 1.964844 C 121.507812 2.058594 121.964844 2.195312 122.40625 2.378906 C 122.851562 2.5625 123.269531 2.789062 123.667969 3.054688 C 124.066406 3.320312 124.4375 3.621094 124.773438 3.960938 C 125.113281 4.300781 125.417969 4.667969 125.683594 5.066406 C 125.949219 5.464844 126.171875 5.886719 126.355469 6.328125 C 126.539062 6.769531 126.679688 7.226562 126.773438 7.695312 C 126.867188 8.164062 126.914062 8.640625 126.914062 9.117188 L 126.914062 117.796875 C 126.914062 118.277344 126.867188 118.75 126.773438 119.21875 C 126.679688 119.691406 126.539062 120.144531 126.355469 120.589844 C 126.171875 121.03125 125.949219 121.453125 125.683594 121.851562 C 125.417969 122.246094 125.113281 122.617188 124.773438 122.953125 C 124.4375 123.292969 124.066406 123.597656 123.667969 123.863281 C 123.269531 124.128906 122.851562 124.351562 122.40625 124.535156 C 121.964844 124.71875 121.507812 124.859375 121.039062 124.949219 C 120.566406 125.042969 120.09375 125.089844 119.613281 125.089844 L 7.386719 125.089844 C 6.910156 125.089844 6.433594 125.042969 5.964844 124.949219 C 5.492188 124.859375 5.039062 124.71875 4.59375 124.535156 C 4.152344 124.351562 3.730469 124.128906 3.332031 123.863281 C 2.933594 123.597656 2.566406 123.292969 2.226562 122.953125 C 1.886719 122.617188 1.585938 122.246094 1.320312 121.851562 C 1.054688 121.453125 0.828125 121.03125 0.644531 120.589844 C 0.460938 120.144531 0.324219 119.691406 0.230469 119.21875 C 0.136719 118.75 0.0898438 118.277344 0.0898438 117.796875 L 0.0898438 9.117188 C 0.0898438 8.640625 0.136719 8.164062 0.230469 7.695312 C 0.324219 7.226562 0.460938 6.769531 0.644531 6.328125 C 0.828125 5.886719 1.054688 5.464844 1.320312 5.066406 C 1.585938 4.667969 1.886719 4.300781 2.226562 3.960938 C 2.566406 3.621094 2.933594 3.320312 3.332031 3.054688 C 3.730469 2.789062 4.152344 2.5625 4.59375 2.378906 C 5.039062 2.195312 5.492188 2.058594 5.964844 1.964844 C 6.433594 1.871094 6.910156 1.824219 7.386719 1.824219 Z M 7.386719 1.824219 " fill-opacity="1" fill-rule="nonzero"/><path stroke-linecap="butt" transform="matrix(0.729863, 0, 0, 0.729379, 0.0893838, 1.824739)" fill="none" stroke-linejoin="miter" d="M 9.998226 1.49885 L 163.762104 1.49885 C 164.318715 1.49885 164.875326 1.552406 165.421233 1.664873 C 165.967141 1.771984 166.502344 1.932652 167.016139 2.146875 C 167.529934 2.361098 168.022321 2.623522 168.487948 2.934145 C 168.948222 3.244769 169.376385 3.592881 169.772435 3.989194 C 170.168486 4.385507 170.52172 4.813954 170.832138 5.279889 C 171.142556 5.740469 171.404805 6.233182 171.613534 6.747318 C 171.827616 7.261454 171.988177 7.797012 172.100569 8.343281 C 172.20761 8.88955 172.26113 9.441175 172.26113 9.998155 L 172.26113 159.001096 C 172.26113 159.558076 172.20761 160.115056 172.100569 160.661326 C 171.988177 161.207595 171.827616 161.737797 171.613534 162.257288 C 171.404805 162.771424 171.142556 163.258782 170.832138 163.724717 C 170.52172 164.190653 170.168486 164.619099 169.772435 165.010056 C 169.376385 165.406369 168.948222 165.759838 168.487948 166.070461 C 168.022321 166.381085 167.529934 166.643508 167.016139 166.852376 C 166.502344 167.066599 165.967141 167.227266 165.421233 167.339734 C 164.875326 167.446845 164.318715 167.500401 163.762104 167.500401 L 9.998226 167.500401 C 9.441614 167.500401 8.890355 167.446845 8.339096 167.339734 C 7.793189 167.227266 7.263337 167.066599 6.749542 166.852376 C 6.230395 166.643508 5.74336 166.381085 5.277734 166.070461 C 4.812107 165.759838 4.383944 165.406369 3.987894 165.010056 C 3.597196 164.619099 3.243962 164.190653 2.933544 163.724717 C 2.623126 163.258782 2.360876 162.771424 2.146795 162.257288 C 1.932714 161.737797 1.772153 161.207595 1.665112 160.661326 C 1.552719 160.115056 1.499199 159.558076 1.499199 159.001096 L 1.499199 9.998155 C 1.499199 9.441175 1.552719 8.88955 1.665112 8.343281 C 1.772153 7.797012 1.932714 7.261454 2.146795 6.747318 C 2.360876 6.233182 2.623126 5.740469 2.933544 5.279889 C 3.243962 4.813954 3.597196 4.385507 3.987894 3.989194 C 4.383944 3.592881 4.812107 3.244769 5.277734 2.934145 C 5.74336 2.623522 6.230395 2.361098 6.749542 2.146875 C 7.263337 1.932652 7.793189 1.771984 8.339096 1.664873 C 8.890355 1.552406 9.441614 1.49885 9.998226 1.49885 Z M 9.998226 1.49885 " stroke="#000000" stroke-width="3" stroke-opacity="1" stroke-miterlimit="4"/></g><path fill="#0d2152" d="M 93.621094 52.238281 L 33.386719 52.238281 L 33.386719 40.117188 C 33.386719 38.882812 33.898438 37.726562 34.820312 36.863281 C 35.726562 36.015625 36.933594 35.550781 38.21875 35.550781 L 52.742188 35.550781 C 54.355469 35.550781 55.226562 36.0625 56.105469 36.886719 L 56.121094 36.898438 L 56.132812 36.914062 L 56.160156 36.941406 L 59.5625 40.339844 C 59.582031 40.359375 59.59375 40.371094 59.601562 40.378906 C 59.621094 40.382812 59.65625 40.382812 59.710938 40.382812 L 89.078125 40.382812 C 90.351562 40.382812 91.511719 40.847656 92.34375 41.695312 C 93.167969 42.53125 93.621094 43.6875 93.621094 44.953125 Z M 93.621094 52.238281 " fill-opacity="1" fill-rule="nonzero"/><path fill="#000000" d="M 92.527344 51.144531 L 92.527344 44.953125 C 92.527344 42.941406 91.105469 41.476562 89.078125 41.476562 L 59.710938 41.476562 C 59.289062 41.476562 59.0625 41.386719 58.789062 41.113281 L 55.359375 37.6875 C 54.617188 36.992188 54.011719 36.644531 52.742188 36.644531 L 38.21875 36.644531 C 36.132812 36.644531 34.484375 38.199219 34.484375 40.117188 L 34.484375 51.144531 L 92.527344 51.144531 M 94.714844 53.332031 L 32.292969 53.332031 L 32.292969 40.117188 C 32.292969 38.574219 32.925781 37.136719 34.070312 36.0625 C 35.179688 35.027344 36.652344 34.457031 38.21875 34.457031 L 52.742188 34.457031 C 54.710938 34.457031 55.808594 35.109375 56.855469 36.089844 L 56.9375 36.167969 L 60.058594 39.289062 L 89.078125 39.289062 C 92.292969 39.289062 94.714844 41.722656 94.714844 44.953125 Z M 94.714844 53.332031 " fill-opacity="1" fill-rule="nonzero"/><path fill="#2e86ff" d="M 90.289062 93.554688 L 37.007812 93.554688 C 35.683594 93.554688 34.589844 93.15625 33.765625 92.375 C 32.925781 91.582031 32.378906 90.394531 32.144531 88.847656 L 32.144531 88.828125 L 32.140625 88.808594 C 32.007812 87.625 28.855469 59.835938 28.585938 56.957031 C 28.449219 55.484375 28.773438 54.300781 29.550781 53.445312 C 30.359375 52.558594 31.628906 52.09375 33.230469 52.09375 L 93.765625 52.09375 C 95.1875 52.09375 96.378906 52.558594 97.203125 53.441406 C 98.140625 54.445312 98.550781 55.882812 98.425781 57.714844 C 98.214844 60.820312 94.992188 87.65625 94.851562 88.8125 C 94.675781 90.320312 94.195312 91.492188 93.425781 92.300781 C 92.632812 93.132812 91.578125 93.554688 90.289062 93.554688 Z M 90.289062 93.554688 " fill-opacity="1" fill-rule="nonzero"/><path fill="#000000" d="M 33.230469 53.1875 C 31.292969 53.1875 29.40625 53.957031 29.675781 56.855469 C 29.949219 59.757812 33.230469 88.683594 33.230469 88.683594 C 33.636719 91.371094 34.996094 92.460938 37.007812 92.460938 L 90.289062 92.460938 C 92.207031 92.460938 93.464844 91.28125 93.765625 88.683594 C 93.765625 88.683594 97.121094 60.753906 97.332031 57.640625 C 97.542969 54.546875 95.988281 53.1875 93.765625 53.1875 C 93.597656 53.1875 93.117188 53.1875 92.511719 53.1875 L 34.484375 53.1875 C 33.878906 53.1875 33.410156 53.1875 33.230469 53.1875 M 33.230469 50.996094 L 93.765625 50.996094 C 95.5 50.996094 96.964844 51.585938 98.003906 52.695312 C 98.796875 53.542969 99.699219 55.113281 99.515625 57.792969 C 99.304688 60.917969 96.082031 87.75 95.941406 88.941406 C 95.734375 90.6875 95.15625 92.074219 94.21875 93.054688 C 93.222656 94.097656 91.863281 94.648438 90.289062 94.648438 L 37.007812 94.648438 C 35.394531 94.648438 34.046875 94.148438 33.011719 93.167969 C 31.992188 92.203125 31.335938 90.804688 31.0625 89.011719 L 31.054688 88.929688 C 30.917969 87.746094 27.765625 59.949219 27.496094 57.0625 C 27.285156 54.824219 28.058594 53.460938 28.742188 52.710938 C 29.453125 51.929688 30.808594 50.996094 33.230469 50.996094 Z M 33.230469 50.996094 " fill-opacity="1" fill-rule="nonzero"/></svg>