<svg xmlns="http://www.w3.org/2000/svg" xmlns:xlink="http://www.w3.org/1999/xlink" width="170" zoomAndPan="magnify" viewBox="0 0 127.5 127.499994" height="170" preserveAspectRatio="xMidYMid meet" version="1.0"><defs><clipPath id="c04da68511"><path d="M 12.699219 70 L 49 70 L 49 127 L 12.699219 127 Z M 12.699219 70 " clip-rule="nonzero"/></clipPath><clipPath id="e2c20cda99"><path d="M 79 0 L 115.046875 0 L 115.046875 127 L 79 127 Z M 79 0 " clip-rule="nonzero"/></clipPath><clipPath id="e5712ae652"><path d="M 41 30 L 85 30 L 85 127 L 41 127 Z M 41 30 " clip-rule="nonzero"/></clipPath></defs><path fill="#ffffff" d="M 0 0 L 127 0 L 127 127 L 0 127 Z M 0 0 " fill-opacity="1" fill-rule="nonzero"/><path fill="#ffffff" d="M 0 0 L 127 0 L 127 127 L 0 127 Z M 0 0 " fill-opacity="1" fill-rule="nonzero"/><path fill="#ffffff" d="M 17.855469 79.28125 L 35.527344 79.28125 C 36.015625 79.28125 36.484375 79.375 36.933594 79.5625 C 37.386719 79.75 37.785156 80.015625 38.128906 80.359375 C 38.476562 80.703125 38.742188 81.097656 38.925781 81.550781 C 39.113281 82 39.207031 82.464844 39.207031 82.953125 L 39.207031 121.859375 C 39.207031 122.34375 39.113281 122.8125 38.925781 123.261719 C 38.742188 123.710938 38.476562 124.109375 38.128906 124.453125 C 37.785156 124.796875 37.386719 125.0625 36.933594 125.25 C 36.484375 125.433594 36.015625 125.527344 35.527344 125.527344 L 17.855469 125.527344 C 17.367188 125.527344 16.898438 125.433594 16.445312 125.25 C 15.996094 125.0625 15.597656 124.796875 15.25 124.453125 C 14.90625 124.109375 14.640625 123.710938 14.453125 123.261719 C 14.265625 122.8125 14.171875 122.34375 14.171875 121.859375 L 14.171875 82.953125 C 14.171875 82.464844 14.265625 82 14.453125 81.550781 C 14.640625 81.097656 14.90625 80.703125 15.25 80.359375 C 15.597656 80.015625 15.996094 79.75 16.445312 79.5625 C 16.898438 79.375 17.367188 79.28125 17.855469 79.28125 Z M 17.855469 79.28125 " fill-opacity="1" fill-rule="nonzero"/><g clip-path="url(#c04da68511)"><path stroke-linecap="butt" transform="matrix(0.736321, 0, 0, 0.734054, 14.172839, 79.283128)" fill="none" stroke-linejoin="miter" d="M 5.001391 -0.997675 L 29.00162 -0.997675 C 29.394197 -0.997675 29.786773 -0.960424 30.16874 -0.885924 C 30.556012 -0.806101 30.932673 -0.69435 31.298724 -0.545349 C 31.65947 -0.391026 32.004301 -0.210096 32.333217 0.0134062 C 32.662133 0.231587 32.964523 0.476375 33.240387 0.758413 C 33.521557 1.03513 33.770896 1.338454 33.988405 1.668386 C 34.205914 1.992996 34.391592 2.338892 34.54544 2.706074 C 34.693982 3.067934 34.805389 3.440438 34.884965 3.828906 C 34.959237 4.217374 35.001677 4.605841 35.001677 4.999631 L 35.001677 58.001548 C 35.001677 58.395338 34.959237 58.783806 34.884965 59.172273 C 34.805389 59.55542 34.693982 59.933245 34.54544 60.295105 C 34.391592 60.662287 34.205914 61.008183 33.988405 61.332793 C 33.770896 61.662725 33.521557 61.966049 33.240387 62.242766 C 32.964523 62.519483 32.662133 62.769592 32.333217 62.987773 C 32.004301 63.205954 31.65947 63.392205 31.298724 63.541207 C 30.932673 63.69553 30.556012 63.807281 30.16874 63.887103 C 29.786773 63.961603 29.394197 63.998854 29.00162 63.998854 L 5.001391 63.998854 C 4.603509 63.998854 4.216237 63.961603 3.828966 63.887103 C 3.441694 63.807281 3.070338 63.69553 2.704287 63.541207 C 2.338235 63.392205 1.993404 63.205954 1.664489 62.987773 C 1.340878 62.769592 1.038488 62.519483 0.757318 62.242766 C 0.476149 61.966049 0.232114 61.662725 0.00930061 61.332793 C -0.208208 61.008183 -0.393886 60.662287 -0.542429 60.295105 C -0.696276 59.933245 -0.807683 59.55542 -0.88726 59.172273 C -0.961531 58.783806 -0.998667 58.395338 -0.998667 58.001548 L -0.998667 4.999631 C -0.998667 4.605841 -0.961531 4.217374 -0.88726 3.828906 C -0.807683 3.440438 -0.696276 3.067934 -0.542429 2.706074 C -0.393886 2.338892 -0.208208 1.992996 0.00930061 1.668386 C 0.232114 1.338454 0.476149 1.03513 0.757318 0.758413 C 1.038488 0.476375 1.340878 0.231587 1.664489 0.0134062 C 1.993404 -0.210096 2.338235 -0.391026 2.704287 -0.545349 C 3.070338 -0.69435 3.441694 -0.806101 3.828966 -0.885924 C 4.216237 -0.960424 4.603509 -0.997675 5.001391 -0.997675 Z M 5.001391 -0.997675 " stroke="#000000" stroke-width="2" stroke-opacity="1" stroke-miterlimit="4"/></g><path fill="#ffe115" d="M 92.222656 1.472656 L 109.894531 1.472656 C 110.382812 1.472656 110.851562 1.566406 111.304688 1.753906 C 111.753906 1.9375 112.152344 2.203125 112.496094 2.546875 C 112.84375 2.894531 113.109375 3.289062 113.296875 3.738281 C 113.484375 4.1875 113.578125 4.65625 113.578125 5.144531 L 113.578125 121.859375 C 113.578125 122.34375 113.484375 122.8125 113.296875 123.261719 C 113.109375 123.710938 112.84375 124.109375 112.496094 124.453125 C 112.152344 124.796875 111.753906 125.0625 111.304688 125.25 C 110.851562 125.433594 110.382812 125.527344 109.894531 125.527344 L 92.222656 125.527344 C 91.734375 125.527344 91.265625 125.433594 90.8125 125.25 C 90.363281 125.0625 89.964844 124.796875 89.621094 124.453125 C 89.273438 124.109375 89.007812 123.710938 88.820312 123.261719 C 88.632812 122.8125 88.542969 122.34375 88.542969 121.859375 L 88.542969 5.144531 C 88.542969 4.65625 88.632812 4.1875 88.820312 3.738281 C 89.007812 3.289062 89.273438 2.894531 89.621094 2.546875 C 89.964844 2.203125 90.363281 1.9375 90.8125 1.753906 C 91.265625 1.566406 91.734375 1.472656 92.222656 1.472656 Z M 92.222656 1.472656 " fill-opacity="1" fill-rule="nonzero"/><g clip-path="url(#e2c20cda99)"><path stroke-linecap="butt" transform="matrix(0.736321, 0, 0, 0.734054, 88.541272, 1.473438)" fill="none" stroke-linejoin="miter" d="M 4.9997 -1.001502 L 28.999929 -1.001502 C 29.392506 -1.001502 29.785082 -0.958931 30.172354 -0.88443 C 30.55432 -0.809929 30.930982 -0.692857 31.297033 -0.543855 C 31.657779 -0.394854 32.007915 -0.208602 32.331526 0.00957826 C 32.660441 0.227759 32.962831 0.477868 33.244001 0.759907 C 33.519866 1.036623 33.769205 1.339948 33.986714 1.664558 C 34.209528 1.994489 34.389901 2.340385 34.543748 2.702246 C 34.692291 3.069428 34.809003 3.441931 34.883274 3.830399 C 34.962851 4.213546 34.999986 4.607335 34.999986 5.001124 L 34.999986 164.001556 C 34.999986 164.395345 34.962851 164.783813 34.883274 165.172281 C 34.809003 165.555427 34.692291 165.933252 34.543748 166.295113 C 34.389901 166.662295 34.209528 167.008191 33.986714 167.332801 C 33.769205 167.662732 33.519866 167.966057 33.244001 168.242774 C 32.962831 168.51949 32.660441 168.7696 32.331526 168.98778 C 32.007915 169.205961 31.657779 169.392213 31.297033 169.541214 C 30.930982 169.695537 30.55432 169.807288 30.172354 169.88711 C 29.785082 169.961611 29.392506 169.998861 28.999929 169.998861 L 4.9997 169.998861 C 4.607123 169.998861 4.214546 169.961611 3.827275 169.88711 C 3.445308 169.807288 3.068647 169.695537 2.702595 169.541214 C 2.341849 169.392213 1.991713 169.205961 1.668103 168.98778 C 1.339187 168.7696 1.036797 168.51949 0.755627 168.242774 C 0.479762 167.966057 0.230423 167.662732 0.0129145 167.332801 C -0.209899 167.008191 -0.390272 166.662295 -0.54412 166.295113 C -0.692663 165.933252 -0.809375 165.555427 -0.883646 165.172281 C -0.963222 164.783813 -1.000358 164.395345 -1.000358 164.001556 L -1.000358 5.001124 C -1.000358 4.607335 -0.963222 4.213546 -0.883646 3.830399 C -0.809375 3.441931 -0.692663 3.069428 -0.54412 2.702246 C -0.390272 2.340385 -0.209899 1.994489 0.0129145 1.664558 C 0.230423 1.339948 0.479762 1.036623 0.755627 0.759907 C 1.036797 0.477868 1.339187 0.227759 1.668103 0.00957826 C 1.991713 -0.208602 2.341849 -0.394854 2.702595 -0.543855 C 3.068647 -0.692857 3.445308 -0.809929 3.827275 -0.88443 C 4.214546 -0.958931 4.607123 -1.001502 4.9997 -1.001502 Z M 4.9997 -1.001502 " stroke="#000000" stroke-width="2" stroke-opacity="1" stroke-miterlimit="4"/></g><path fill="#ff579b" d="M 54.671875 39.644531 L 71.605469 39.644531 C 72.09375 39.644531 72.5625 39.738281 73.015625 39.921875 C 73.464844 40.109375 73.863281 40.375 74.210938 40.71875 C 74.554688 41.0625 74.820312 41.460938 75.007812 41.910156 C 75.195312 42.359375 75.289062 42.828125 75.289062 43.316406 L 75.289062 121.859375 C 75.289062 122.34375 75.195312 122.8125 75.007812 123.261719 C 74.820312 123.710938 74.554688 124.109375 74.210938 124.453125 C 73.863281 124.796875 73.464844 125.0625 73.015625 125.25 C 72.5625 125.433594 72.09375 125.527344 71.605469 125.527344 L 54.671875 125.527344 C 54.183594 125.527344 53.710938 125.433594 53.261719 125.25 C 52.8125 125.0625 52.414062 124.796875 52.066406 124.453125 C 51.722656 124.109375 51.457031 123.710938 51.269531 123.261719 C 51.082031 122.8125 50.988281 122.34375 50.988281 121.859375 L 50.988281 43.316406 C 50.988281 42.828125 51.082031 42.359375 51.269531 41.910156 C 51.457031 41.460938 51.722656 41.0625 52.066406 40.71875 C 52.414062 40.375 52.8125 40.109375 53.261719 39.921875 C 53.710938 39.738281 54.183594 39.644531 54.671875 39.644531 Z M 54.671875 39.644531 " fill-opacity="1" fill-rule="nonzero"/><g clip-path="url(#e5712ae652)"><path stroke-linecap="butt" transform="matrix(0.736321, 0, 0, 0.734054, 50.988898, 39.644225)" fill="none" stroke-linejoin="miter" d="M 5.001863 -1.000021 L 27.99943 -1.000021 C 28.392007 -1.000021 28.784583 -0.962771 29.171855 -0.882949 C 29.559127 -0.808448 29.930483 -0.696697 30.296534 -0.542374 C 30.662585 -0.393373 31.007416 -0.207121 31.331027 0.0110596 C 31.659942 0.22924 31.962333 0.47935 32.243502 0.756066 C 32.519367 1.038105 32.768706 1.341429 32.986215 1.666039 C 33.209029 1.995971 33.394707 2.341867 33.54325 2.703727 C 33.691792 3.065588 33.808504 3.443413 33.882775 3.831881 C 33.962352 4.215027 33.999487 4.603495 33.999487 5.002606 L 33.999487 112.001557 C 33.999487 112.395347 33.962352 112.783815 33.882775 113.172282 C 33.808504 113.555429 33.691792 113.933254 33.54325 114.295114 C 33.394707 114.662296 33.209029 115.008192 32.986215 115.332802 C 32.768706 115.662734 32.519367 115.966058 32.243502 116.242775 C 31.962333 116.519492 31.659942 116.769601 31.331027 116.987782 C 31.007416 117.205962 30.662585 117.392214 30.296534 117.541216 C 29.930483 117.695538 29.559127 117.807289 29.171855 117.887112 C 28.784583 117.961612 28.392007 117.998863 27.99943 117.998863 L 5.001863 117.998863 C 4.603981 117.998863 4.216709 117.961612 3.829438 117.887112 C 3.442166 117.807289 3.065505 117.695538 2.704759 117.541216 C 2.338707 117.392214 1.993876 117.205962 1.664961 116.987782 C 1.34135 116.769601 1.033655 116.519492 0.75779 116.242775 C 0.476621 115.966058 0.232586 115.662734 0.00977256 115.332802 C -0.207736 115.008192 -0.393414 114.662296 -0.541957 114.295114 C -0.695804 113.933254 -0.807211 113.555429 -0.886788 113.172282 C -0.961059 112.783815 -0.998195 112.395347 -0.998195 112.001557 L -0.998195 5.002606 C -0.998195 4.603495 -0.961059 4.215027 -0.886788 3.831881 C -0.807211 3.443413 -0.695804 3.065588 -0.541957 2.703727 C -0.393414 2.341867 -0.207736 1.995971 0.00977256 1.666039 C 0.232586 1.341429 0.476621 1.038105 0.75779 0.756066 C 1.033655 0.47935 1.34135 0.22924 1.664961 0.0110596 C 1.993876 -0.207121 2.338707 -0.393373 2.704759 -0.542374 C 3.065505 -0.696697 3.442166 -0.808448 3.829438 -0.882949 C 4.216709 -0.962771 4.603981 -1.000021 5.001863 -1.000021 Z M 5.001863 -1.000021 " stroke="#000000" stroke-width="2" stroke-opacity="1" stroke-miterlimit="4"/></g></svg>