<svg xmlns="http://www.w3.org/2000/svg" xmlns:xlink="http://www.w3.org/1999/xlink" width="170" zoomAndPan="magnify" viewBox="0 0 127.5 127.499994" height="170" preserveAspectRatio="xMidYMid meet" version="1.0"><defs><clipPath id="966d6afdcc"><path d="M 0 0 L 127 0 L 127 127 L 0 127 Z M 0 0 " clip-rule="nonzero"/></clipPath><clipPath id="119c392dca"><path d="M 0 31 L 127 31 L 127 96 L 0 96 Z M 0 31 " clip-rule="nonzero"/></clipPath></defs><path fill="#ffe115" d="M 63.152344 1.285156 C 65.191406 1.285156 67.230469 1.386719 69.261719 1.585938 C 71.292969 1.785156 73.308594 2.085938 75.3125 2.484375 C 77.316406 2.882812 79.292969 3.375 81.246094 3.96875 C 83.203125 4.5625 85.121094 5.25 87.007812 6.03125 C 88.894531 6.8125 90.738281 7.683594 92.539062 8.644531 C 94.339844 9.609375 96.089844 10.65625 97.785156 11.792969 C 99.484375 12.925781 101.121094 14.140625 102.699219 15.4375 C 104.277344 16.730469 105.789062 18.101562 107.234375 19.542969 C 108.675781 20.988281 110.046875 22.5 111.34375 24.078125 C 112.636719 25.65625 113.851562 27.292969 114.988281 28.992188 C 116.121094 30.6875 117.167969 32.4375 118.132812 34.238281 C 119.09375 36.039062 119.964844 37.882812 120.746094 39.769531 C 121.527344 41.65625 122.214844 43.578125 122.808594 45.53125 C 123.402344 47.484375 123.898438 49.460938 124.296875 51.464844 C 124.695312 53.46875 124.992188 55.484375 125.191406 57.515625 C 125.394531 59.546875 125.492188 61.585938 125.492188 63.628906 C 125.492188 65.667969 125.394531 67.707031 125.191406 69.738281 C 124.992188 71.769531 124.695312 73.789062 124.296875 75.789062 C 123.898438 77.792969 123.402344 79.769531 122.808594 81.722656 C 122.214844 83.679688 121.527344 85.597656 120.746094 87.484375 C 119.964844 89.371094 119.09375 91.214844 118.132812 93.015625 C 117.167969 94.816406 116.121094 96.566406 114.988281 98.261719 C 113.851562 99.960938 112.636719 101.597656 111.34375 103.175781 C 110.046875 104.753906 108.675781 106.265625 107.234375 107.710938 C 105.789062 109.152344 104.277344 110.523438 102.699219 111.820312 C 101.121094 113.113281 99.484375 114.328125 97.785156 115.464844 C 96.089844 116.597656 94.339844 117.644531 92.539062 118.609375 C 90.738281 119.570312 88.894531 120.441406 87.007812 121.222656 C 85.121094 122.007812 83.203125 122.691406 81.246094 123.285156 C 79.292969 123.878906 77.316406 124.375 75.3125 124.773438 C 73.308594 125.171875 71.292969 125.46875 69.261719 125.667969 C 67.230469 125.871094 65.191406 125.96875 63.152344 125.96875 C 61.109375 125.96875 59.070312 125.871094 57.039062 125.667969 C 55.007812 125.46875 52.992188 125.171875 50.988281 124.773438 C 48.984375 124.375 47.007812 123.878906 45.054688 123.285156 C 43.097656 122.691406 41.179688 122.007812 39.292969 121.222656 C 37.40625 120.441406 35.5625 119.570312 33.761719 118.609375 C 31.960938 117.644531 30.210938 116.597656 28.515625 115.464844 C 26.816406 114.328125 25.179688 113.113281 23.601562 111.820312 C 22.023438 110.523438 20.511719 109.152344 19.066406 107.710938 C 17.625 106.265625 16.253906 104.753906 14.957031 103.175781 C 13.664062 101.597656 12.449219 99.960938 11.3125 98.261719 C 10.179688 96.566406 9.132812 94.816406 8.167969 93.015625 C 7.207031 91.214844 6.335938 89.371094 5.554688 87.484375 C 4.773438 85.597656 4.085938 83.679688 3.492188 81.722656 C 2.898438 79.769531 2.402344 77.792969 2.003906 75.789062 C 1.605469 73.789062 1.308594 71.769531 1.109375 69.738281 C 0.90625 67.707031 0.808594 65.667969 0.808594 63.628906 C 0.808594 61.585938 0.90625 59.546875 1.109375 57.515625 C 1.308594 55.484375 1.605469 53.46875 2.003906 51.464844 C 2.402344 49.460938 2.898438 47.484375 3.492188 45.53125 C 4.085938 43.578125 4.773438 41.65625 5.554688 39.769531 C 6.335938 37.882812 7.207031 36.039062 8.167969 34.238281 C 9.132812 32.4375 10.179688 30.6875 11.3125 28.992188 C 12.449219 27.292969 13.664062 25.65625 14.957031 24.078125 C 16.253906 22.5 17.625 20.988281 19.066406 19.542969 C 20.511719 18.101562 22.023438 16.730469 23.601562 15.4375 C 25.179688 14.140625 26.816406 12.925781 28.515625 11.792969 C 30.210938 10.65625 31.960938 9.609375 33.761719 8.644531 C 35.5625 7.683594 37.40625 6.8125 39.292969 6.03125 C 41.179688 5.25 43.097656 4.5625 45.054688 3.96875 C 47.007812 3.375 48.984375 2.882812 50.988281 2.484375 C 52.992188 2.085938 55.007812 1.785156 57.039062 1.585938 C 59.070312 1.386719 61.109375 1.285156 63.152344 1.285156 " fill-opacity="1" fill-rule="nonzero"/><g clip-path="url(#966d6afdcc)"><path fill="#000000" d="M 63.152344 127.53125 C 62.105469 127.53125 61.058594 127.503906 60.015625 127.453125 C 58.96875 127.402344 57.925781 127.324219 56.886719 127.222656 C 55.847656 127.121094 54.808594 126.992188 53.773438 126.839844 C 52.738281 126.6875 51.710938 126.507812 50.683594 126.304688 C 49.65625 126.097656 48.636719 125.871094 47.625 125.617188 C 46.609375 125.363281 45.601562 125.082031 44.601562 124.78125 C 43.597656 124.476562 42.605469 124.148438 41.621094 123.796875 C 40.636719 123.441406 39.660156 123.066406 38.695312 122.667969 C 37.730469 122.265625 36.773438 121.84375 35.828125 121.394531 C 34.882812 120.949219 33.949219 120.476562 33.027344 119.984375 C 32.105469 119.492188 31.195312 118.976562 30.296875 118.4375 C 29.402344 117.902344 28.515625 117.34375 27.648438 116.761719 C 26.777344 116.179688 25.921875 115.578125 25.082031 114.957031 C 24.242188 114.332031 23.417969 113.6875 22.609375 113.027344 C 21.800781 112.363281 21.011719 111.679688 20.234375 110.976562 C 19.460938 110.273438 18.703125 109.554688 17.964844 108.8125 C 17.222656 108.074219 16.503906 107.316406 15.800781 106.542969 C 15.097656 105.765625 14.414062 104.976562 13.753906 104.167969 C 13.089844 103.359375 12.445312 102.535156 11.824219 101.695312 C 11.199219 100.855469 10.597656 100 10.015625 99.128906 C 9.433594 98.261719 8.875 97.378906 8.339844 96.480469 C 7.800781 95.582031 7.285156 94.671875 6.792969 93.75 C 6.300781 92.828125 5.828125 91.894531 5.382812 90.949219 C 4.933594 90.003906 4.511719 89.046875 4.109375 88.082031 C 3.710938 87.117188 3.335938 86.140625 2.980469 85.15625 C 2.628906 84.171875 2.300781 83.179688 2 82.175781 C 1.695312 81.175781 1.417969 80.167969 1.160156 79.15625 C 0.90625 78.140625 0.679688 77.121094 0.476562 76.09375 C 0.269531 75.070312 0.09375 74.039062 -0.0625 73.003906 C -0.214844 71.96875 -0.34375 70.933594 -0.445312 69.890625 C -0.546875 68.851562 -0.625 67.808594 -0.675781 66.761719 C -0.726562 65.71875 -0.753906 64.671875 -0.753906 63.628906 C -0.753906 62.582031 -0.726562 61.535156 -0.675781 60.492188 C -0.625 59.445312 -0.546875 58.40625 -0.445312 57.363281 C -0.34375 56.324219 -0.214844 55.285156 -0.0625 54.25 C 0.09375 53.214844 0.269531 52.1875 0.476562 51.160156 C 0.679688 50.132812 0.90625 49.113281 1.160156 48.101562 C 1.417969 47.085938 1.695312 46.078125 2 45.078125 C 2.300781 44.078125 2.628906 43.082031 2.980469 42.097656 C 3.335938 41.113281 3.710938 40.140625 4.109375 39.171875 C 4.511719 38.207031 4.933594 37.25 5.382812 36.304688 C 5.828125 35.359375 6.300781 34.425781 6.792969 33.503906 C 7.285156 32.582031 7.800781 31.671875 8.339844 30.773438 C 8.875 29.878906 9.433594 28.992188 10.015625 28.125 C 10.597656 27.253906 11.199219 26.398438 11.824219 25.558594 C 12.445312 24.71875 13.089844 23.894531 13.753906 23.085938 C 14.414062 22.277344 15.097656 21.488281 15.800781 20.710938 C 16.503906 19.9375 17.222656 19.179688 17.964844 18.441406 C 18.703125 17.703125 19.460938 16.980469 20.234375 16.277344 C 21.011719 15.574219 21.800781 14.894531 22.609375 14.230469 C 23.417969 13.566406 24.242188 12.921875 25.082031 12.300781 C 25.921875 11.675781 26.777344 11.074219 27.648438 10.492188 C 28.515625 9.914062 29.402344 9.351562 30.296875 8.816406 C 31.195312 8.277344 32.105469 7.761719 33.027344 7.269531 C 33.949219 6.777344 34.882812 6.304688 35.828125 5.859375 C 36.773438 5.410156 37.730469 4.988281 38.695312 4.589844 C 39.660156 4.1875 40.636719 3.8125 41.621094 3.460938 C 42.605469 3.105469 43.597656 2.777344 44.601562 2.476562 C 45.601562 2.171875 46.609375 1.894531 47.625 1.640625 C 48.636719 1.386719 49.65625 1.15625 50.683594 0.953125 C 51.710938 0.746094 52.738281 0.570312 53.773438 0.414062 C 54.808594 0.261719 55.847656 0.132812 56.886719 0.03125 C 57.925781 -0.0703125 58.96875 -0.148438 60.015625 -0.199219 C 61.058594 -0.25 62.105469 -0.277344 63.152344 -0.277344 C 64.195312 -0.277344 65.242188 -0.25 66.285156 -0.199219 C 67.332031 -0.148438 68.375 -0.0703125 69.414062 0.03125 C 70.453125 0.132812 71.492188 0.261719 72.527344 0.414062 C 73.5625 0.570312 74.589844 0.746094 75.617188 0.953125 C 76.644531 1.15625 77.664062 1.386719 78.679688 1.640625 C 79.691406 1.894531 80.699219 2.171875 81.699219 2.476562 C 82.703125 2.777344 83.695312 3.105469 84.679688 3.460938 C 85.664062 3.8125 86.640625 4.1875 87.605469 4.589844 C 88.570312 4.988281 89.527344 5.410156 90.472656 5.859375 C 91.417969 6.304688 92.351562 6.777344 93.273438 7.269531 C 94.195312 7.761719 95.105469 8.277344 96.003906 8.816406 C 96.902344 9.351562 97.785156 9.914062 98.652344 10.492188 C 99.523438 11.074219 100.378906 11.675781 101.21875 12.300781 C 102.058594 12.921875 102.882812 13.566406 103.691406 14.230469 C 104.5 14.894531 105.289062 15.574219 106.066406 16.277344 C 106.839844 16.980469 107.597656 17.703125 108.335938 18.441406 C 109.078125 19.179688 109.796875 19.9375 110.5 20.710938 C 111.203125 21.488281 111.886719 22.277344 112.546875 23.085938 C 113.210938 23.894531 113.855469 24.71875 114.476562 25.558594 C 115.101562 26.398438 115.703125 27.253906 116.285156 28.125 C 116.867188 28.992188 117.425781 29.878906 117.960938 30.773438 C 118.5 31.671875 119.015625 32.582031 119.507812 33.503906 C 120 34.425781 120.472656 35.359375 120.917969 36.304688 C 121.367188 37.25 121.789062 38.207031 122.191406 39.171875 C 122.589844 40.140625 122.964844 41.113281 123.320312 42.097656 C 123.671875 43.082031 124 44.078125 124.300781 45.078125 C 124.605469 46.078125 124.886719 47.085938 125.140625 48.101562 C 125.394531 49.113281 125.621094 50.132812 125.828125 51.160156 C 126.03125 52.1875 126.207031 53.214844 126.363281 54.25 C 126.515625 55.285156 126.644531 56.324219 126.746094 57.363281 C 126.847656 58.40625 126.925781 59.445312 126.976562 60.492188 C 127.027344 61.535156 127.054688 62.582031 127.054688 63.628906 C 127.054688 64.671875 127.027344 65.71875 126.972656 66.761719 C 126.921875 67.804688 126.84375 68.847656 126.742188 69.890625 C 126.636719 70.929688 126.507812 71.96875 126.355469 73 C 126.199219 74.035156 126.019531 75.066406 125.816406 76.089844 C 125.613281 77.117188 125.382812 78.136719 125.128906 79.148438 C 124.871094 80.164062 124.59375 81.171875 124.289062 82.171875 C 123.984375 83.171875 123.65625 84.164062 123.304688 85.148438 C 122.949219 86.132812 122.574219 87.105469 122.171875 88.074219 C 121.773438 89.039062 121.347656 89.992188 120.902344 90.9375 C 120.453125 91.882812 119.984375 92.816406 119.492188 93.738281 C 118.996094 94.660156 118.480469 95.570312 117.945312 96.46875 C 117.40625 97.363281 116.847656 98.246094 116.265625 99.117188 C 115.683594 99.984375 115.082031 100.839844 114.460938 101.679688 C 113.835938 102.519531 113.195312 103.34375 112.53125 104.152344 C 111.867188 104.960938 111.183594 105.75 110.480469 106.523438 C 109.78125 107.300781 109.058594 108.058594 108.320312 108.796875 C 107.578125 109.535156 106.824219 110.257812 106.046875 110.957031 C 105.273438 111.660156 104.480469 112.34375 103.675781 113.007812 C 102.867188 113.671875 102.042969 114.3125 101.203125 114.9375 C 100.363281 115.558594 99.507812 116.160156 98.640625 116.742188 C 97.769531 117.324219 96.886719 117.882812 95.992188 118.421875 C 95.09375 118.957031 94.183594 119.472656 93.261719 119.96875 C 92.339844 120.460938 91.40625 120.929688 90.460938 121.378906 C 89.515625 121.824219 88.5625 122.25 87.597656 122.652344 C 86.628906 123.050781 85.65625 123.425781 84.671875 123.78125 C 83.6875 124.132812 82.695312 124.460938 81.695312 124.765625 C 80.695312 125.070312 79.6875 125.347656 78.671875 125.605469 C 77.660156 125.859375 76.636719 126.089844 75.613281 126.292969 C 74.589844 126.496094 73.558594 126.675781 72.523438 126.832031 C 71.488281 126.984375 70.453125 127.113281 69.414062 127.21875 C 68.371094 127.320312 67.328125 127.398438 66.285156 127.453125 C 65.242188 127.503906 64.195312 127.53125 63.152344 127.53125 M 63.152344 2.847656 C 61.160156 2.847656 59.175781 2.941406 57.191406 3.136719 C 55.210938 3.332031 53.246094 3.625 51.292969 4.011719 C 49.339844 4.402344 47.410156 4.886719 45.507812 5.464844 C 43.601562 6.039062 41.730469 6.710938 39.890625 7.472656 C 38.050781 8.234375 36.253906 9.085938 34.5 10.023438 C 32.742188 10.960938 31.039062 11.984375 29.382812 13.089844 C 27.726562 14.195312 26.128906 15.378906 24.589844 16.640625 C 23.050781 17.90625 21.578125 19.242188 20.171875 20.648438 C 18.765625 22.054688 17.429688 23.527344 16.164062 25.066406 C 14.902344 26.605469 13.71875 28.203125 12.613281 29.859375 C 11.507812 31.515625 10.484375 33.21875 9.546875 34.976562 C 8.605469 36.730469 7.757812 38.527344 6.996094 40.367188 C 6.234375 42.207031 5.5625 44.078125 4.984375 45.984375 C 4.40625 47.886719 3.925781 49.816406 3.535156 51.769531 C 3.148438 53.722656 2.855469 55.6875 2.660156 57.667969 C 2.464844 59.652344 2.367188 61.636719 2.367188 63.628906 C 2.367188 65.617188 2.464844 67.605469 2.660156 69.585938 C 2.855469 71.566406 3.148438 73.53125 3.535156 75.484375 C 3.925781 77.4375 4.40625 79.367188 4.984375 81.269531 C 5.5625 83.175781 6.234375 85.046875 6.996094 86.886719 C 7.757812 88.726562 8.605469 90.523438 9.546875 92.28125 C 10.484375 94.035156 11.507812 95.742188 12.613281 97.394531 C 13.71875 99.050781 14.902344 100.648438 16.164062 102.1875 C 17.429688 103.726562 18.765625 105.199219 20.171875 106.605469 C 21.578125 108.015625 23.050781 109.347656 24.589844 110.613281 C 26.128906 111.875 27.726562 113.058594 29.382812 114.164062 C 31.039062 115.273438 32.742188 116.292969 34.5 117.230469 C 36.253906 118.171875 38.050781 119.019531 39.890625 119.78125 C 41.730469 120.542969 43.601562 121.214844 45.507812 121.792969 C 47.410156 122.371094 49.339844 122.851562 51.292969 123.242188 C 53.246094 123.628906 55.210938 123.921875 57.191406 124.117188 C 59.175781 124.3125 61.160156 124.410156 63.152344 124.410156 C 65.140625 124.410156 67.128906 124.3125 69.109375 124.117188 C 71.089844 123.921875 73.054688 123.628906 75.007812 123.242188 C 76.960938 122.851562 78.890625 122.371094 80.792969 121.792969 C 82.699219 121.214844 84.570312 120.542969 86.410156 119.78125 C 88.25 119.019531 90.046875 118.171875 91.804688 117.230469 C 93.558594 116.292969 95.265625 115.273438 96.917969 114.164062 C 98.574219 113.058594 100.171875 111.875 101.710938 110.613281 C 103.25 109.347656 104.722656 108.015625 106.128906 106.605469 C 107.539062 105.199219 108.871094 103.726562 110.136719 102.1875 C 111.398438 100.648438 112.582031 99.050781 113.6875 97.394531 C 114.792969 95.742188 115.816406 94.035156 116.753906 92.28125 C 117.695312 90.523438 118.542969 88.726562 119.304688 86.886719 C 120.066406 85.046875 120.738281 83.175781 121.316406 81.269531 C 121.894531 79.367188 122.375 77.4375 122.765625 75.484375 C 123.152344 73.53125 123.445312 71.566406 123.640625 69.585938 C 123.835938 67.605469 123.933594 65.617188 123.933594 63.628906 C 123.929688 61.636719 123.832031 59.652344 123.636719 57.671875 C 123.4375 55.691406 123.144531 53.726562 122.753906 51.773438 C 122.367188 49.820312 121.882812 47.894531 121.304688 45.988281 C 120.722656 44.085938 120.054688 42.214844 119.292969 40.375 C 118.527344 38.535156 117.679688 36.742188 116.738281 34.984375 C 115.800781 33.230469 114.777344 31.527344 113.671875 29.871094 C 112.566406 28.214844 111.382812 26.621094 110.121094 25.082031 C 108.855469 23.542969 107.523438 22.070312 106.113281 20.664062 C 104.707031 19.257812 103.234375 17.921875 101.695312 16.660156 C 100.15625 15.394531 98.5625 14.210938 96.90625 13.105469 C 95.253906 12 93.546875 10.976562 91.792969 10.039062 C 90.039062 9.097656 88.242188 8.25 86.402344 7.484375 C 84.5625 6.722656 82.691406 6.054688 80.789062 5.472656 C 78.882812 4.894531 76.957031 4.410156 75.003906 4.023438 C 73.054688 3.632812 71.085938 3.339844 69.105469 3.144531 C 67.125 2.945312 65.140625 2.847656 63.152344 2.847656 " fill-opacity="1" fill-rule="nonzero"/></g><path fill="#ffffff" d="M 125.492188 63.628906 C 125.492188 63.628906 97.585938 93.8125 63.152344 93.8125 C 28.714844 93.8125 0.808594 63.628906 0.808594 63.628906 C 0.808594 63.628906 28.714844 33.4375 63.148438 33.4375 C 97.582031 33.4375 125.492188 63.621094 125.492188 63.621094 " fill-opacity="1" fill-rule="nonzero"/><g clip-path="url(#119c392dca)"><path fill="#000000" d="M 63.148438 95.375 C 44.976562 95.375 28.683594 87.011719 18.195312 80.019531 C 11.472656 75.566406 5.289062 70.457031 -0.347656 64.691406 C -0.484375 64.546875 -0.585938 64.386719 -0.660156 64.203125 C -0.734375 64.019531 -0.769531 63.828125 -0.769531 63.628906 C -0.769531 63.433594 -0.734375 63.242188 -0.660156 63.058594 C -0.585938 62.875 -0.484375 62.714844 -0.347656 62.570312 C 5.28125 56.792969 11.464844 51.683594 18.195312 47.242188 C 28.652344 40.246094 44.980469 31.882812 63.148438 31.882812 C 81.320312 31.882812 97.613281 40.246094 108.105469 47.242188 C 114.828125 51.691406 121.007812 56.796875 126.648438 62.5625 C 126.78125 62.707031 126.886719 62.871094 126.960938 63.054688 C 127.03125 63.238281 127.070312 63.425781 127.070312 63.625 C 127.070312 63.820312 127.03125 64.011719 126.960938 64.195312 C 126.886719 64.378906 126.78125 64.542969 126.648438 64.683594 C 121.015625 70.460938 114.835938 75.570312 108.105469 80.011719 C 97.609375 87.007812 81.320312 95.371094 63.148438 95.371094 M 2.992188 63.628906 C 8.222656 68.78125 13.894531 73.390625 20.007812 77.457031 C 30.089844 84.199219 45.792969 92.253906 63.148438 92.253906 C 80.503906 92.253906 96.210938 84.199219 106.292969 77.457031 C 112.398438 73.382812 118.070312 68.773438 123.308594 63.628906 C 118.078125 58.472656 112.40625 53.863281 106.292969 49.796875 C 96.210938 43.054688 80.511719 35 63.148438 35 C 45.789062 35 30.089844 43.054688 20.007812 49.796875 C 13.894531 53.863281 8.222656 58.472656 2.992188 63.628906 " fill-opacity="1" fill-rule="nonzero"/></g><path fill="#000000" d="M 63.152344 43.304688 C 63.816406 43.304688 64.480469 43.339844 65.140625 43.402344 C 65.804688 43.46875 66.460938 43.566406 67.117188 43.695312 C 67.769531 43.824219 68.414062 43.988281 69.050781 44.179688 C 69.6875 44.375 70.3125 44.597656 70.925781 44.851562 C 71.542969 45.105469 72.144531 45.390625 72.730469 45.703125 C 73.316406 46.019531 73.886719 46.359375 74.441406 46.730469 C 74.996094 47.101562 75.527344 47.496094 76.042969 47.917969 C 76.558594 48.339844 77.050781 48.785156 77.519531 49.257812 C 77.992188 49.726562 78.4375 50.222656 78.859375 50.734375 C 79.28125 51.25 79.679688 51.785156 80.046875 52.335938 C 80.417969 52.890625 80.761719 53.460938 81.074219 54.046875 C 81.386719 54.636719 81.671875 55.234375 81.925781 55.851562 C 82.179688 56.464844 82.40625 57.09375 82.597656 57.730469 C 82.792969 58.367188 82.953125 59.011719 83.082031 59.664062 C 83.210938 60.316406 83.308594 60.972656 83.375 61.636719 C 83.441406 62.296875 83.472656 62.960938 83.472656 63.628906 C 83.472656 64.292969 83.441406 64.957031 83.375 65.621094 C 83.308594 66.28125 83.210938 66.941406 83.082031 67.59375 C 82.953125 68.246094 82.792969 68.890625 82.597656 69.527344 C 82.40625 70.164062 82.179688 70.789062 81.925781 71.40625 C 81.671875 72.019531 81.386719 72.621094 81.074219 73.207031 C 80.761719 73.796875 80.417969 74.367188 80.046875 74.917969 C 79.679688 75.472656 79.28125 76.007812 78.859375 76.519531 C 78.4375 77.035156 77.992188 77.527344 77.519531 78 C 77.050781 78.46875 76.558594 78.914062 76.042969 79.339844 C 75.527344 79.761719 74.996094 80.15625 74.441406 80.527344 C 73.886719 80.894531 73.316406 81.238281 72.730469 81.550781 C 72.144531 81.863281 71.542969 82.148438 70.925781 82.402344 C 70.3125 82.660156 69.6875 82.882812 69.050781 83.074219 C 68.414062 83.269531 67.769531 83.429688 67.117188 83.5625 C 66.460938 83.691406 65.804688 83.789062 65.140625 83.851562 C 64.480469 83.917969 63.816406 83.949219 63.152344 83.949219 C 62.484375 83.949219 61.820312 83.917969 61.160156 83.851562 C 60.496094 83.789062 59.839844 83.691406 59.1875 83.5625 C 58.53125 83.429688 57.886719 83.269531 57.25 83.074219 C 56.613281 82.882812 55.988281 82.660156 55.375 82.402344 C 54.757812 82.148438 54.15625 81.863281 53.570312 81.550781 C 52.984375 81.238281 52.414062 80.894531 51.859375 80.527344 C 51.304688 80.15625 50.773438 79.761719 50.257812 79.339844 C 49.742188 78.914062 49.25 78.46875 48.78125 78 C 48.308594 77.527344 47.863281 77.035156 47.441406 76.519531 C 47.019531 76.007812 46.621094 75.472656 46.253906 74.917969 C 45.882812 74.367188 45.542969 73.796875 45.226562 73.207031 C 44.914062 72.621094 44.628906 72.019531 44.375 71.40625 C 44.121094 70.789062 43.894531 70.164062 43.703125 69.527344 C 43.507812 68.890625 43.347656 68.246094 43.21875 67.59375 C 43.089844 66.941406 42.992188 66.28125 42.925781 65.621094 C 42.859375 64.957031 42.828125 64.292969 42.828125 63.628906 C 42.828125 62.960938 42.859375 62.296875 42.925781 61.636719 C 42.992188 60.972656 43.089844 60.316406 43.21875 59.664062 C 43.347656 59.011719 43.507812 58.367188 43.703125 57.730469 C 43.894531 57.09375 44.121094 56.464844 44.375 55.851562 C 44.628906 55.234375 44.914062 54.636719 45.226562 54.046875 C 45.542969 53.460938 45.882812 52.890625 46.253906 52.335938 C 46.621094 51.785156 47.019531 51.25 47.441406 50.734375 C 47.863281 50.222656 48.308594 49.726562 48.78125 49.257812 C 49.25 48.785156 49.742188 48.339844 50.257812 47.917969 C 50.773438 47.496094 51.304688 47.101562 51.859375 46.730469 C 52.414062 46.359375 52.984375 46.019531 53.570312 45.703125 C 54.15625 45.390625 54.757812 45.105469 55.375 44.851562 C 55.988281 44.597656 56.613281 44.375 57.25 44.179688 C 57.886719 43.988281 58.53125 43.824219 59.1875 43.695312 C 59.839844 43.566406 60.496094 43.46875 61.160156 43.402344 C 61.820312 43.339844 62.484375 43.304688 63.152344 43.304688 " fill-opacity="1" fill-rule="nonzero"/><path fill="#000000" d="M 63.152344 85.511719 C 62.433594 85.511719 61.71875 85.476562 61.003906 85.40625 C 60.292969 85.335938 59.585938 85.230469 58.882812 85.089844 C 58.179688 84.949219 57.484375 84.777344 56.796875 84.570312 C 56.113281 84.359375 55.4375 84.121094 54.777344 83.84375 C 54.113281 83.570312 53.464844 83.265625 52.835938 82.925781 C 52.203125 82.589844 51.589844 82.222656 50.992188 81.824219 C 50.398438 81.425781 49.820312 81 49.265625 80.542969 C 48.714844 80.089844 48.183594 79.609375 47.675781 79.101562 C 47.167969 78.59375 46.6875 78.0625 46.234375 77.511719 C 45.78125 76.957031 45.351562 76.382812 44.953125 75.785156 C 44.554688 75.191406 44.1875 74.574219 43.851562 73.945312 C 43.511719 73.3125 43.207031 72.664062 42.933594 72.003906 C 42.65625 71.339844 42.417969 70.664062 42.207031 69.980469 C 42 69.292969 41.828125 68.601562 41.6875 67.898438 C 41.546875 67.195312 41.441406 66.484375 41.371094 65.773438 C 41.300781 65.058594 41.265625 64.34375 41.265625 63.628906 C 41.265625 62.910156 41.300781 62.195312 41.371094 61.484375 C 41.441406 60.769531 41.546875 60.0625 41.6875 59.359375 C 41.828125 58.65625 42 57.960938 42.207031 57.273438 C 42.417969 56.589844 42.65625 55.914062 42.933594 55.253906 C 43.207031 54.589844 43.511719 53.945312 43.851562 53.3125 C 44.1875 52.679688 44.554688 52.066406 44.953125 51.46875 C 45.351562 50.875 45.78125 50.296875 46.234375 49.746094 C 46.6875 49.191406 47.167969 48.660156 47.675781 48.152344 C 48.183594 47.644531 48.714844 47.164062 49.265625 46.710938 C 49.820312 46.257812 50.398438 45.828125 50.992188 45.433594 C 51.589844 45.035156 52.203125 44.664062 52.835938 44.328125 C 53.464844 43.988281 54.113281 43.683594 54.777344 43.410156 C 55.4375 43.136719 56.113281 42.894531 56.796875 42.6875 C 57.484375 42.476562 58.179688 42.304688 58.882812 42.164062 C 59.585938 42.023438 60.292969 41.917969 61.003906 41.847656 C 61.71875 41.777344 62.433594 41.742188 63.152344 41.742188 C 63.867188 41.742188 64.582031 41.777344 65.296875 41.847656 C 66.007812 41.917969 66.71875 42.023438 67.417969 42.164062 C 68.121094 42.304688 68.816406 42.476562 69.503906 42.6875 C 70.1875 42.894531 70.863281 43.136719 71.523438 43.410156 C 72.1875 43.683594 72.835938 43.988281 73.464844 44.328125 C 74.097656 44.664062 74.710938 45.035156 75.308594 45.433594 C 75.90625 45.828125 76.480469 46.257812 77.035156 46.710938 C 77.585938 47.164062 78.117188 47.644531 78.625 48.152344 C 79.132812 48.660156 79.613281 49.191406 80.066406 49.746094 C 80.523438 50.296875 80.949219 50.875 81.347656 51.46875 C 81.746094 52.066406 82.113281 52.679688 82.449219 53.3125 C 82.789062 53.945312 83.09375 54.589844 83.367188 55.253906 C 83.644531 55.914062 83.882812 56.589844 84.09375 57.273438 C 84.300781 57.960938 84.472656 58.65625 84.613281 59.359375 C 84.753906 60.0625 84.859375 60.769531 84.929688 61.484375 C 85 62.195312 85.035156 62.910156 85.035156 63.628906 C 85.035156 64.34375 85 65.058594 84.929688 65.773438 C 84.859375 66.484375 84.753906 67.195312 84.613281 67.894531 C 84.472656 68.597656 84.296875 69.292969 84.089844 69.980469 C 83.882812 70.664062 83.640625 71.339844 83.367188 72 C 83.09375 72.664062 82.785156 73.308594 82.449219 73.941406 C 82.109375 74.574219 81.742188 75.1875 81.34375 75.785156 C 80.945312 76.378906 80.519531 76.953125 80.066406 77.507812 C 79.609375 78.0625 79.128906 78.59375 78.621094 79.101562 C 78.117188 79.605469 77.585938 80.085938 77.03125 80.542969 C 76.476562 80.996094 75.902344 81.421875 75.308594 81.820312 C 74.710938 82.21875 74.097656 82.585938 73.464844 82.925781 C 72.832031 83.261719 72.1875 83.570312 71.523438 83.84375 C 70.863281 84.117188 70.1875 84.359375 69.503906 84.566406 C 68.816406 84.777344 68.121094 84.949219 67.417969 85.089844 C 66.714844 85.230469 66.007812 85.335938 65.296875 85.40625 C 64.582031 85.476562 63.867188 85.511719 63.152344 85.511719 M 63.152344 44.867188 C 62.535156 44.867188 61.921875 44.894531 61.3125 44.957031 C 60.699219 45.015625 60.09375 45.105469 59.488281 45.226562 C 58.886719 45.34375 58.292969 45.496094 57.703125 45.671875 C 57.117188 45.851562 56.539062 46.058594 55.96875 46.292969 C 55.402344 46.527344 54.847656 46.789062 54.304688 47.078125 C 53.761719 47.371094 53.238281 47.683594 52.726562 48.027344 C 52.214844 48.367188 51.722656 48.734375 51.246094 49.121094 C 50.773438 49.511719 50.316406 49.925781 49.882812 50.359375 C 49.449219 50.792969 49.035156 51.25 48.644531 51.722656 C 48.257812 52.199219 47.890625 52.691406 47.546875 53.203125 C 47.207031 53.710938 46.890625 54.238281 46.601562 54.78125 C 46.3125 55.324219 46.050781 55.878906 45.816406 56.445312 C 45.578125 57.011719 45.371094 57.589844 45.195312 58.179688 C 45.015625 58.765625 44.867188 59.363281 44.746094 59.964844 C 44.625 60.566406 44.535156 61.175781 44.476562 61.785156 C 44.414062 62.398438 44.386719 63.011719 44.386719 63.625 C 44.386719 64.238281 44.414062 64.851562 44.476562 65.464844 C 44.535156 66.074219 44.625 66.683594 44.746094 67.285156 C 44.867188 67.886719 45.015625 68.484375 45.191406 69.070312 C 45.371094 69.660156 45.578125 70.238281 45.8125 70.804688 C 46.046875 71.375 46.308594 71.929688 46.601562 72.46875 C 46.890625 73.011719 47.207031 73.539062 47.546875 74.050781 C 47.886719 74.5625 48.253906 75.054688 48.644531 75.527344 C 49.03125 76.003906 49.445312 76.457031 49.878906 76.894531 C 50.3125 77.328125 50.769531 77.738281 51.242188 78.128906 C 51.71875 78.519531 52.210938 78.886719 52.722656 79.226562 C 53.234375 79.566406 53.761719 79.882812 54.300781 80.171875 C 54.84375 80.464844 55.398438 80.726562 55.964844 80.960938 C 56.535156 81.195312 57.113281 81.402344 57.699219 81.582031 C 58.289062 81.757812 58.882812 81.910156 59.484375 82.027344 C 60.089844 82.148438 60.695312 82.238281 61.308594 82.300781 C 61.917969 82.359375 62.53125 82.390625 63.144531 82.390625 C 63.761719 82.390625 64.375 82.359375 64.984375 82.300781 C 65.597656 82.238281 66.203125 82.148438 66.808594 82.027344 C 67.410156 81.910156 68.003906 81.761719 68.59375 81.582031 C 69.179688 81.402344 69.757812 81.195312 70.328125 80.960938 C 70.894531 80.726562 71.449219 80.464844 71.992188 80.175781 C 72.53125 79.882812 73.058594 79.570312 73.570312 79.226562 C 74.082031 78.886719 74.574219 78.519531 75.050781 78.132812 C 75.523438 77.742188 75.980469 77.328125 76.414062 76.894531 C 76.847656 76.460938 77.261719 76.003906 77.648438 75.53125 C 78.039062 75.054688 78.40625 74.5625 78.746094 74.050781 C 79.089844 73.539062 79.402344 73.015625 79.695312 72.472656 C 79.984375 71.929688 80.246094 71.375 80.480469 70.808594 C 80.714844 70.238281 80.921875 69.660156 81.101562 69.074219 C 81.28125 68.484375 81.429688 67.890625 81.550781 67.289062 C 81.667969 66.683594 81.757812 66.078125 81.820312 65.464844 C 81.878906 64.855469 81.910156 64.242188 81.910156 63.628906 C 81.90625 63.011719 81.875 62.402344 81.816406 61.789062 C 81.753906 61.179688 81.664062 60.570312 81.542969 59.96875 C 81.421875 59.367188 81.273438 58.773438 81.09375 58.1875 C 80.914062 57.597656 80.707031 57.019531 80.472656 56.453125 C 80.234375 55.886719 79.972656 55.332031 79.683594 54.792969 C 79.394531 54.25 79.078125 53.722656 78.738281 53.214844 C 78.394531 52.703125 78.03125 52.210938 77.640625 51.734375 C 77.25 51.261719 76.839844 50.808594 76.40625 50.371094 C 75.96875 49.9375 75.515625 49.527344 75.042969 49.136719 C 74.566406 48.746094 74.074219 48.382812 73.5625 48.039062 C 73.054688 47.699219 72.527344 47.382812 71.984375 47.09375 C 71.445312 46.804688 70.890625 46.539062 70.324219 46.304688 C 69.757812 46.070312 69.179688 45.863281 68.59375 45.683594 C 68.003906 45.503906 67.410156 45.351562 66.808594 45.234375 C 66.207031 45.113281 65.597656 45.019531 64.988281 44.960938 C 64.378906 44.898438 63.765625 44.867188 63.152344 44.867188 " fill-opacity="1" fill-rule="nonzero"/></svg>